<?xml version="1.0" ?>

<!-- Uploaded to: SVG Repo, www.svgrepo.com, Generator: SVG Repo Mixer Tools -->
<svg width="800px" height="800px" viewBox="0 0 200 200" id="Layer_1" version="1.1" xml:space="preserve" xmlns="http://www.w3.org/2000/svg" xmlns:xlink="http://www.w3.org/1999/xlink">

<style type="text/css">
	.st0{fill:#71A517;}
	.st1{fill:#FAD50A;}
	.st2{fill:#FAD50A;stroke:#2B2B2B;stroke-width:5;stroke-linecap:round;stroke-linejoin:round;stroke-miterlimit:10;}
	.st3{fill:#FFFFFF;stroke:#2B2B2B;stroke-width:5;stroke-linecap:round;stroke-linejoin:round;stroke-miterlimit:10;}
	.st4{fill:#7B3D72;}
	.st5{fill:#F2433B;}
	.st6{fill:#F2433B;stroke:#2B2B2B;stroke-width:6;stroke-linecap:round;stroke-linejoin:round;stroke-miterlimit:10;}
	.st7{fill:#00D2D;stroke:#2B2B2B;stroke-width:6;stroke-linecap:round;stroke-linejoin:round;stroke-miterlimit:10;}
	.st8{fill:#DE3727;stroke:#2B2B2B;stroke-width:6;stroke-linecap:round;stroke-linejoin:round;stroke-miterlimit:10;}
	.st9{fill:#8EBF04;}
	.st10{fill:#8EBF04;stroke:#2B2B2B;stroke-width:6;stroke-linecap:round;stroke-linejoin:round;stroke-miterlimit:10;}
	.st11{fill:#003A52;}
	.st12{fill:#7B3D72;stroke:#2B2B2B;stroke-width:6;stroke-linecap:round;stroke-linejoin:round;stroke-miterlimit:10;}
	.st13{fill:#2B2B2B;}
	.st14{fill:none;stroke:#2B2B2B;stroke-width:6;stroke-linecap:round;stroke-linejoin:round;stroke-miterlimit:10;}
	.st15{fill:#F78D0F;}
	.st16{fill:#F78D0F;stroke:#2B2B2B;stroke-width:6;stroke-linecap:round;stroke-linejoin:round;stroke-miterlimit:10;}
</style>

<g>

<circle class="st5" cx="100" cy="100" r="78.6"/>

<ellipse class="st6" cx="101.4" cy="110" rx="42.7" ry="40.6"/>

<path class="st7" d="M136.3,84.7c-0.2-0.3-8.9-16.4-30.1-16.8c-0.1-9.2,2-20.5,2-20.5h-6.7c0,0,0.3,0-0.2,0.5   c-2,2.8-3.3,13.9-3.6,20c-22.1-0.2-31.1,16.5-31.3,16.8c9.5,3.2,24.4-3,24.5-3.6c0.3,4.4-6.8,11.4-7.7,11.4   c12.1,0.1,16.7-4.1,18.1-5.8c1.4,1.7,6,5.9,18.1,5.8c-0.8,0-8-7-7.7-11.4C112,81.6,126.9,87.8,136.3,84.7z"/>

<path class="st6" d="M104.3,141c0,0,19.3-3.3,26.3-17.8"/>

</g>

</svg>